<svg width="30" height="33" viewBox="0 0 30 33" fill="none" xmlns="http://www.w3.org/2000/svg">
<path d="M11 30V28H9V26H11V23.9C9.68333 23.6667 8.60417 23.0375 7.7625 22.0125C6.92083 20.9875 6.5 19.8 6.5 18.45C6.5 16.9333 7.0375 15.6458 8.1125 14.5875C9.1875 13.5292 10.4833 13 12 13C13.5167 13 14.8125 13.5292 15.8875 14.5875C16.9625 15.6458 17.5 16.9333 17.5 18.45C17.5 19.8 17.0792 20.9875 16.2375 22.0125C15.3958 23.0375 14.3167 23.6667 13 23.9V26H15V28H13V30H11ZM12 22C12.9667 22 13.7917 21.6583 14.475 20.975C15.1583 20.2917 15.5 19.4667 15.5 18.5C15.5 17.5333 15.1583 16.7083 14.475 16.025C13.7917 15.3417 12.9667 15 12 15C11.0333 15 10.2083 15.3417 9.525 16.025C8.84167 16.7083 8.5 17.5333 8.5 18.5C8.5 19.4667 8.84167 20.2917 9.525 20.975C10.2083 21.6583 11.0333 22 12 22Z" fill="#6D02F9"/>
<path d="M26 4V10H24V7.425L20.025 11.375C20.3417 11.8417 20.5833 12.3375 20.75 12.8625C20.9167 13.3875 21 13.9333 21 14.5C21 16.0333 20.4667 17.3333 19.4 18.4C18.3333 19.4667 17.0333 20 15.5 20C13.9667 20 12.6667 19.4667 11.6 18.4C10.5333 17.3333 10 16.0333 10 14.5C10 12.9667 10.5333 11.6667 11.6 10.6C12.6667 9.53333 13.9667 9 15.5 9C16.05 9 16.5917 9.07917 17.125 9.2375C17.6583 9.39583 18.15 9.64167 18.6 9.975L22.575 6H20V4H26ZM15.5 11C14.5333 11 13.7083 11.3417 13.025 12.025C12.3417 12.7083 12 13.5333 12 14.5C12 15.4667 12.3417 16.2917 13.025 16.975C13.7083 17.6583 14.5333 18 15.5 18C16.4667 18 17.2917 17.6583 17.975 16.975C18.6583 16.2917 19 15.4667 19 14.5C19 13.5333 18.6583 12.7083 17.975 12.025C17.2917 11.3417 16.4667 11 15.5 11Z" fill="#6D02F9"/>
</svg>
