<svg width="816" height="263" viewBox="0 0 816 263" fill="none" xmlns="http://www.w3.org/2000/svg">
<path d="M291.249 108.188C291.249 84.3911 308.599 67.7745 340.13 67.7745C359.37 67.7745 375.113 73.9172 383.642 79.9346C384.862 80.7938 387.04 82.8783 385.734 86.755C384.061 90.9304 380.992 97.2097 378.79 101.289C377.509 103.666 374.236 103.352 372.559 102.503C366.484 99.4242 356.519 94.2162 347.365 93.2558C345.047 93.0035 342.715 92.9026 340.384 92.9539C332.322 93.1338 325.587 95.9329 323.215 102.084C322.75 103.247 322.491 104.483 322.449 105.736C322.227 113.841 333.508 116.772 347.172 119.119C372.577 123.472 391.797 130.92 391.797 157.068C391.797 179.273 374.149 199.341 339.572 198.726C316.777 198.265 300.605 190.563 291.94 183.089C291.644 182.835 288.345 179.475 290.114 175.435C292.137 170.233 295.553 164.272 298.233 161.107C299.723 159.073 303.656 158.751 305.701 160.018C312.844 164.457 324.599 171.574 338.15 172.046C339.22 172.083 340.28 172.09 341.32 172.062C353.509 171.767 360.884 167.145 360.73 159.359C360.598 152.5 350.934 148.494 335.544 145.593C310.999 140.97 291.252 132.879 291.252 108.188M514.238 142.071C496.929 142.298 481.059 147.029 480.602 160.556C480.597 171.29 489.304 176.562 501.525 175.872C513.249 174.743 522.189 169.658 526.128 162.912C527.585 160.411 527.806 151.055 527.718 147.056C527.696 146.205 526.013 144.594 525.275 144.284C521.598 142.735 518.876 142.256 514.236 142.068M456.644 87.566C464.738 80.3232 480.786 69.0496 506.362 69.6438C540.114 70.3456 557.945 86.1688 559.606 124.021C560.29 139.63 559.156 183.171 558.886 194.019C558.846 195.575 558.319 196.651 556.222 196.691C550.664 196.914 537.823 196.826 531.922 196.749C528.945 196.604 528.6 195.127 528.561 193.58C528.536 192.568 528.449 189.569 528.386 187.123C528.352 185.825 527.134 185.862 526.822 186.195C518.905 194.648 505.938 198.73 492.15 198.73C471.192 198.73 450.299 186.402 450.363 161.987C450.428 136.982 468.157 124.649 487.634 121.74C500.106 119.884 514.164 121.535 524.81 125.765C525.491 126.038 526.881 125.643 526.893 124.678C526.936 121.491 526.782 115.419 526.17 112.542C524.607 105.209 518.49 99.3086 505.64 97.7187C502.993 97.3927 500.329 97.2851 497.661 97.4971C487.446 98.3001 475.153 106.266 470.062 109.248C468.864 109.948 466.988 109.436 466.381 108.654C463.41 104.815 455.942 93.5899 455.355 91.796C454.767 90.007 455.596 88.5007 456.641 87.5596L456.644 87.566ZM570.735 134.112C570.534 99.2395 594.832 69.8204 634.286 69.5619C658.905 69.4013 676.791 80.5625 679.945 85.8268C680.586 87.0634 680.256 88.096 679.813 89.3406C677.729 93.7408 672.464 102.243 668.713 107.06C667.115 109.113 665.381 107.354 663.365 106.013C657.772 102.288 647.144 97.7316 636.684 97.7316C617.708 97.7348 603.578 110.746 603.735 134.684C603.883 157.655 617.418 170.28 636.75 170.737C646.856 170.991 656.647 165.182 661.915 160.424C663.569 158.98 665.281 159.703 667.171 161.18C670.881 164.972 676.201 170.826 679.151 174.855C681.083 177.094 679.638 179.284 678.943 180.164C670.939 190.293 655.48 198.817 635.022 198.933C592.185 199.233 570.935 169.114 570.738 134.117M775.214 197.361C777.224 197.21 798.681 194.248 805.267 192.74C806.902 192.368 807.483 190.993 806.57 189.631C802.892 184.116 793.223 168.455 783.096 154.436C773.781 141.545 763.964 130.207 760.789 125.845C760.015 124.785 760.057 123.741 760.9 122.919C766.94 117.009 792.204 92.2377 801.704 82.0079C805.381 78.0284 803.173 76.3164 800.049 75.3866C794.016 73.5879 784.257 71.3461 778.707 70.1753C776.367 69.6807 773.548 69.8541 771.502 71.9579C762.005 80.8147 733.019 109.906 724.367 118.602C722.809 120.171 721.901 119.823 721.893 117.581C721.823 100.815 721.492 29.0329 720.893 17.226C720.851 15.6651 718.974 14.4799 717.916 14.4237C712.475 14.1394 698.729 14.0575 693.313 14.3755C691.795 14.5473 690.345 16.0938 690.213 17.4011C688.964 36.2805 690.743 174.869 691.485 194.256C691.538 195.658 692.582 196.746 693.913 196.824C699.317 197.137 712.683 197.117 718.924 196.999C721.995 196.999 722.37 194.841 722.37 194.841L722.833 157.652C722.833 157.652 723.149 155.998 723.662 155.452C725.862 153.083 731.948 146.56 734.543 144.039C735.166 143.433 736.149 143.477 736.785 144.333C739.869 148.492 748.661 162.014 756.811 174.091C764.3 185.184 771.29 195.03 771.779 195.726C772.906 197.332 774.223 197.396 775.215 197.365V197.361H775.214ZM410.292 197.232C412.179 197.295 426.496 197.279 432.839 197.271C434.975 197.312 436.085 195.695 436.156 194.268C437.503 167.086 436.927 37.6696 436.075 17.2341C436.005 15.4675 435.248 14.8043 434.042 14.6437C428.598 13.9146 413.127 14.0848 408.167 15.3824C407.197 15.6345 406.626 16.3717 406.595 17.3192C405.381 69.9939 406.2 191.435 406.457 193.734C406.713 196.037 407.917 197.152 410.295 197.232H410.292Z" fill="#443642"/>
<path d="M27.1271 143.186C18.3041 143.253 10.8301 137.996 8.07432 129.789C7.97209 129.479 7.87678 129.167 7.78846 128.853C4.78537 118.344 10.6085 107.349 21.0455 103.829L188.448 47.7452C190.436 47.1701 192.493 46.8697 194.562 46.8523C203.619 46.7816 211.299 52.1551 214.122 60.5348L214.373 61.3442C217.504 72.2903 209.724 82.0608 200.401 85.1924C200.395 85.1972 198.699 85.7705 33.9267 142.028C31.7365 142.775 29.4409 143.166 27.1271 143.186Z" fill="#70CADB"/>
<path d="M55.0303 225.514C46.1382 225.578 38.6385 220.395 35.9148 212.305C35.8115 211.998 35.7151 211.688 35.6258 211.376C32.5809 200.741 38.3976 189.631 48.8699 186.106L216.279 129.508C218.442 128.786 220.676 128.416 222.923 128.395C231.839 128.328 239.673 133.775 242.437 141.956L242.694 142.807C244.311 148.461 243.355 154.816 240.14 159.831C237.744 163.56 230.186 166.843 230.186 166.843L62.1414 224.302C59.8495 225.078 57.4498 225.488 55.0303 225.517V225.514Z" fill="#E01765"/>
<path d="M194.387 225.872C190.048 225.914 185.807 224.581 182.271 222.065C178.736 219.548 176.088 215.977 174.706 211.864L118.836 45.9064L118.556 44.9749C115.529 34.3918 121.351 23.3526 131.785 19.8356C133.872 19.1338 136.031 18.7677 138.203 18.7484C141.431 18.7243 144.555 19.4518 147.497 20.9052C149.92 22.1036 152.083 23.7694 153.86 25.8067C155.638 27.844 156.995 30.2126 157.854 32.7762L213.719 198.719L213.882 199.252C217.02 210.24 211.211 221.286 200.777 224.803C198.716 225.491 196.56 225.852 194.387 225.872Z" fill="#E8A723"/>
<path d="M111.339 253.825C106.998 253.867 102.754 252.532 99.2173 250.014C95.6804 247.495 93.0316 243.922 91.6505 239.805L35.7945 73.8545C34.929 71.2943 34.577 68.5885 34.7586 65.8921C34.9402 63.1957 35.6519 60.5616 36.8529 58.1405C38.0538 55.7195 39.7205 53.5591 41.7575 51.7831C43.7945 50.007 46.1618 48.6502 48.7239 47.7902C50.7879 47.1002 52.9473 46.7382 55.1235 46.7174C59.4635 46.6746 63.7055 48.0069 67.2416 50.5235C70.7777 53.04 73.4262 56.6115 74.8075 60.726L130.665 226.683C131.531 229.245 131.883 231.952 131.701 234.65C131.519 237.347 130.806 239.982 129.603 242.404C128.401 244.826 126.732 246.987 124.693 248.762C122.655 250.538 120.285 251.894 117.721 252.753C115.661 253.443 113.505 253.804 111.333 253.824L111.339 253.825Z" fill="#3EB890"/>
<path d="M166.844 188.499L205.8 175.179L193.065 137.36L154.063 150.54L166.844 188.499Z" fill="#CC2027"/>
<path d="M83.9244 216.85L122.878 203.532L110.047 165.423L71.0544 178.608L83.9244 216.85Z" fill="#361238"/>
<path d="M139.109 106.121L178.069 92.8189L165.483 55.4408L126.451 68.5179L139.109 106.121Z" fill="#65863A"/>
<path d="M56.1801 134.434L95.1401 121.132L82.4002 83.2765L43.3679 96.352L56.1801 134.434Z" fill="#1A937D"/>
</svg>
